<?xml version="1.0" encoding="UTF-8"?>
<svg xmlns="http://www.w3.org/2000/svg" id="Layer_2" data-name="Layer 2" viewBox="0 0 729.33 255.17">
  <defs>
    <style>
      .cls-1 {
        fill: #0A2A3D;
        stroke-width: 0px;
      }
    </style>
  </defs>
  <g id="Layer_1-2" data-name="Layer 1">
    <path class="cls-1" d="M18.37,215.87c8.46,0,12.97,4.42,12.97,4.42l-1.91,2.82s-4.26-3.78-10.89-3.78c-8.81,0-14.79,7.08-14.79,16.11s6.18,16.26,14.47,16.26c7.11,0,11.47-5.57,11.47-5.57v-6.43h-6.23v-3.35h9.66v18.15h-3.32v-2.87c0-.81.05-1.62.05-1.62h-.1s-4.2,5.13-11.89,5.13c-9.96,0-17.85-8.37-17.85-19.67s7.89-19.6,18.37-19.6"></path>
    <path class="cls-1" d="M40.73,216.51h10.79c3.73,0,5.39.37,6.85,1.03,3.43,1.57,5.51,5.18,5.51,9.78,0,5.13-2.8,9.09-6.91,10.27v.12l.37.49,8.51,16.31h-4.1l-8.26-15.99h-9.18v15.99h-3.58v-37.99ZM52.97,235.15c4.41,0,7.21-2.97,7.21-7.73,0-3.14-1.2-5.45-3.32-6.65-1.1-.59-2.38-.91-5.18-.91h-7.36v15.3h8.66Z"></path>
    <path class="cls-1" d="M90.27,242.39h-14.69l-4.16,12.11h-3.78l13.39-37.99h3.83l13.41,37.99h-3.8l-4.2-12.11ZM82.91,220.46s-.78,3.14-1.4,4.92l-4.88,13.78h12.56l-4.78-13.78c-.63-1.79-1.4-4.92-1.4-4.92h-.1Z"></path>
    <path class="cls-1" d="M103.19,216.51h11.79c10.94,0,18.32,6.97,18.32,18.96s-7.36,19.01-18.32,19.01h-11.79v-37.98ZM114.6,251.14c8.98,0,14.94-5.51,14.94-15.67s-6.01-15.62-14.94-15.62h-7.84v31.29h7.84Z"></path>
    <path class="cls-1" d="M140.09,216.51h3.63v24.7c0,6.54,4.05,10.49,10.34,10.49s10.38-3.95,10.38-10.59v-24.6h3.58v24.76c0,8.42-5.66,13.88-13.91,13.88s-14.02-5.45-14.02-13.88v-24.76Z"></path>
    <path class="cls-1" d="M194.71,242.39h-14.69l-4.16,12.11h-3.78l13.39-37.98h3.83l13.39,37.98h-3.78l-4.2-12.11ZM187.35,220.46s-.77,3.14-1.4,4.92l-4.88,13.78h12.56l-4.78-13.78c-.63-1.79-1.4-4.92-1.4-4.92h-.1Z"></path>
    <polygon class="cls-1" points="213.49 219.87 200.37 219.87 200.37 216.51 230.15 216.51 230.15 219.87 217.08 219.87 217.08 254.5 213.5 254.5 213.49 219.87"></polygon>
    <path class="cls-1" d="M234.76,251.14h21.48v3.34h-21.48v-3.34ZM234.76,237.04h3.58v14.1h-3.58v-14.1ZM234.76,233.7h17.45v3.34h-17.45v-3.34ZM234.76,219.87h3.58v13.83h-3.58v-13.83ZM234.76,216.51h20.55v3.36h-20.55v-3.36Z"></path>
    <path class="cls-1" d="M275.64,216.13h13.19c6.64,0,11.37,3.56,11.37,9.9,0,3.56-1.66,6.65-4.46,8.21v.1c4.05,1.25,5.96,5.13,5.96,9.02,0,7.67-5.91,11.13-12.72,11.13h-13.34v-38.35ZM288.83,231.8c2.91,0,4.56-2.16,4.56-4.92s-1.56-4.76-4.68-4.76h-6.38v9.68h6.5ZM289.5,248.5c3.43,0,5.34-2.33,5.34-5.57s-1.97-5.51-5.34-5.51h-7.18v11.08h7.18Z"></path>
    <path class="cls-1" d="M307.39,216.13h6.69v24.59c0,5.13,3.21,8.05,8.14,8.05s8.21-2.92,8.21-8.11v-24.53h6.69v24.59c0,8.59-5.96,14.42-14.84,14.42s-14.89-5.84-14.89-14.42l.02-24.59Z"></path>
    <path class="cls-1" d="M345.73,244.67s4,4.05,9.18,4.05c2.8,0,5.35-1.5,5.35-4.64,0-6.86-17.38-5.68-17.38-17.45-.02-6.38,5.27-11.14,12.33-11.14s11.01,4.1,11.01,4.1l-2.9,5.68s-3.53-3.36-8.14-3.36c-3.11,0-5.56,1.89-5.56,4.59,0,6.8,17.33,5.13,17.33,17.39,0,6.11-4.46,11.25-12.14,11.25-8.19,0-12.72-5.23-12.72-5.23l3.63-5.23Z"></path>
    <rect class="cls-1" x="372.62" y="216.13" width="6.69" height="38.36"></rect>
    <path class="cls-1" d="M387.59,216.13h6.69l13.97,22.15c1.4,2.21,3.06,5.94,3.06,5.94h.1s-.36-3.68-.36-5.94v-22.15h6.64v38.36h-6.64l-13.95-22.09c-1.4-2.21-3.06-5.94-3.06-5.94h-.1s.37,3.68.37,5.94v22.09h-6.72v-38.36Z"></path>
    <path class="cls-1" d="M425.99,248.5h22.88v5.99h-22.88v-5.99ZM425.99,238.18h6.69v10.32h-6.69v-10.32ZM425.99,232.19h19.1v5.99h-19.1v-5.99ZM425.99,222.14h6.69v10.05h-6.69v-10.05ZM425.99,216.13h22.05v6.01h-22.05v-6.01Z"></path>
    <path class="cls-1" d="M455.61,244.67s4,4.05,9.18,4.05c2.8,0,5.35-1.5,5.35-4.64,0-6.86-17.38-5.68-17.38-17.45,0-6.38,5.29-11.13,12.35-11.13s11.01,4.1,11.01,4.1l-2.92,5.66s-3.53-3.36-8.16-3.36c-3.11,0-5.56,1.89-5.56,4.59,0,6.8,17.33,5.13,17.33,17.39,0,6.11-4.46,11.25-12.14,11.25-8.21,0-12.72-5.23-12.72-5.23l3.65-5.23Z"></path>
    <path class="cls-1" d="M483.32,244.67s4,4.05,9.18,4.05c2.8,0,5.35-1.5,5.35-4.64,0-6.86-17.38-5.68-17.38-17.45,0-6.38,5.28-11.13,12.34-11.13s11.01,4.1,11.01,4.1l-2.9,5.67s-3.53-3.36-8.16-3.36c-3.11,0-5.56,1.89-5.56,4.59,0,6.8,17.33,5.13,17.33,17.39,0,6.11-4.46,11.25-12.14,11.25-8.21,0-12.72-5.23-12.72-5.23l3.63-5.25Z"></path>
    <path class="cls-1" d="M523.17,247.42s3.78,4.16,9.54,4.16c4,0,7.26-2.48,7.26-6.59,0-9.56-18.22-7.12-18.22-18.91,0-5.45,4.61-10.22,11.36-10.22,6.33,0,9.76,3.68,9.76,3.68l-1.77,3.14s-3.21-3.24-7.99-3.24-7.68,3.19-7.68,6.54c0,9.02,18.22,6.43,18.22,18.91,0,5.67-4.2,10.27-11.06,10.27-7.48,0-11.56-4.86-11.56-4.86l2.14-2.87Z"></path>
    <path class="cls-1" d="M566.48,215.86c8.71,0,13.12,4.92,13.12,4.92l-1.93,2.75s-4.25-4.22-11.11-4.22c-8.56,0-14.69,6.92-14.69,15.89s6.13,16.48,14.79,16.48c7.36,0,11.84-5.08,11.84-5.08l2.09,2.67s-4.98,5.89-13.96,5.89c-10.79,0-18.47-8.82-18.47-19.89s7.89-19.4,18.32-19.4"></path>
    <path class="cls-1" d="M612.09,237.15h3.58v17.34h-3.58v-17.34ZM587.34,237.15h3.58v17.34h-3.58v-17.34ZM587.34,233.81h28.33v3.34h-28.33v-3.34ZM587.34,216.52h3.58v17.29h-3.58v-17.29ZM612.09,216.52h3.58v17.29h-3.58v-17.29Z"></path>
    <path class="cls-1" d="M641.3,215.88c10.32,0,18.57,8.48,18.57,19.4s-8.25,19.89-18.57,19.89-18.57-8.75-18.57-19.89,8.26-19.4,18.57-19.4M641.3,251.69c8.21,0,14.84-7.13,14.84-16.43s-6.63-15.94-14.84-15.94-14.84,6.86-14.84,15.94,6.59,16.43,14.84,16.43"></path>
    <path class="cls-1" d="M683.01,215.88c10.32,0,18.57,8.48,18.57,19.4s-8.26,19.89-18.57,19.89-18.57-8.75-18.57-19.89,8.25-19.4,18.57-19.4M683.01,251.69c8.21,0,14.84-7.13,14.84-16.43s-6.64-15.94-14.84-15.94-14.84,6.86-14.84,15.94,6.59,16.43,14.84,16.43"></path>
    <path class="cls-1" d="M708.64,251.15h20.5v3.35h-20.5v-3.35ZM708.64,216.52h3.58v34.63h-3.58v-34.63Z"></path>
    <rect class="cls-1" x=".1" y="186.63" width="729.23" height="3.09"></rect>
    <path class="cls-1" d="M198.08,97.65h-50.33l6.2-42.07h.3l-4.45,33.53.38.34.4.22.51.35-.23,2.94c.2.11.39.2.58.28l.6.28c2.43.93,4.46.83,7.74-.9,1.76-.92,3.53-1.31,5.22-1.31l2.93.39c.32.09.63.2.94.3l1.99.96c.77.46,1.47,1.01,2.09,1.61h0s.05.02.05.02c2.65-2.52,6.92-4.15,11.31-2.78l.82.28c.63.29.85.39,1.07.5l.55.28c.94.44,1.56.69,2.14.87,2.45.77,4.18.32,6.22-.77l-.38-2.92c.16-.07.44-.35.61-.44l.44-.25.42-.25-4.54-33.59h.32l6.11,42.09Z"></path>
    <polyline class="cls-1" points="167.45 55.61 166.27 55.61 167.08 55.57"></polyline>
    <path class="cls-1" d="M172.92,54.77l-.11.15v35.4c-1.95-1.81-4.75-3.09-7.82-3.09-1.69,0-3.47.4-5.23,1.32-3.74,1.97-5.87,1.82-8.35.61l-.33-.16,4.39-35.83c2.72,1.46,2.73,1.82,6.99-.4,4.89-2.58,7.47-.99,10.44,2.01"></path>
    <path class="cls-1" d="M195.11,88.89l-.33.17c-2.65,1.27-4.76,1.43-8.51-.54-4.8-2.52-9.75-1.09-12.81,1.56v-35.07c0-.07-.02-.13-.06-.17l-.12-.13c2.87-2.97,5.41-4.51,10.28-1.96,4.28,2.23,4.2,1.74,6.92.27l.38,2.56.29,2.32,3.96,31Z"></path>
    <path class="cls-1" d="M181.93,34.94c4.12,1.6,8,3.68,11.57,6.14l.25-.26c.04-.08,1.2-3.76,1.54-5.32l.23-1.45c-.5-.73-1.07-.53-1.53.04l-3.51,4.31c-.12.13-.16.25-.22.36h-.11c.25-.94,1.11-3.67,1.2-4.72v-1.15s-1.02-.52-1.02-.52l-3.3,4.24c.4-1.1,1.24-3.51,1.41-4.49l.11-1.18-.89-.38-2.29,3.12c-.25-.11-.7-.24-.88-.28,0,0-4.2-1.11-5.62-1.26l-1.3-.06-.47.8,4.47,2.54s.04.09.06.16l-2.5.7c-.65.18-.95.51-.65.75l1.18.35c1.55.1,3.93-.03,5.48-.11l-4.88,1.32c-.8.21-1.13.55-.71.77.37.2,1.51.27,2.17.27,1.13,0,3.56-.16,5.43-.31l-3.64.87c-.81.19-1.19.59-.86.89.34.28,1.43.47,2.08.57,1.4.13,5.05.02,6.97-.05l-5.68,1.37c-.91.23-1.32.66-.91.98.42.29,1.71.47,2.46.54,1.27.1,4.04.05,6.18-.02l-4.74.92c-1.01.2-1.5.67-1.12,1.05.38.38,1.73.67,2.5.81,1.37.2,4.37.31,6.67.38l-4.67.61c-1.09.14-1.66.6-1.29,1.01.37.44,1.72.85,2.53,1.02,1.13.25,3.41.51,5.51.72l-3.87.5c-1.13.15-1.73.63-1.35,1.09.39.44,1.81.89,2.67,1.08,1.1.23,3.21.47,5.27.69l-4.53.19c-1.27.06-2,.54-1.64,1.07.36.56,1.86,1.16,2.77,1.45,1.62.52,5.41,1.26,8.17,1.77l-6.96.2c-1.31.02-2.11.53-1.75,1.09.33.61,1.87,1.25,2.85,1.58,1.55.53,5.05,1.3,7.85,1.87l-6.96-.26c-1.41-.03-2.26.44-1.95,1.06.31.64,1.88,1.45,2.85,1.84,1.46.61,4.68,1.55,7.44,2.32l-7.22-.42c-1.53-.08-2.49.41-2.17,1.12.33.73,2.04,1.66,3.1,2.12,1.9.84,6.47,2.24,9.75,3.21l-9.63-1.19c-1.66-.22-2.81.27-2.54,1.08.3.81,2.08,1.99,3.19,2.58,1.42.77,4.28,1.94,7.07,3.04l-7.46-2.14c-1.76-.5-3.09-.14-3.01.8.08.94,1.73,2.52,2.78,3.33,1.25,1.01,3.78,2.62,6.34,4.18l-7.75-3.1c-1.82-.73-3.35-.47-3.38.58-.06,1.05,1.48,2.97,2.47,4.01.97.99,2.8,2.52,4.8,4.1l-5.53-2.79c-1.84-.93-3.47-.8-3.65.32-.13,1.1,1.21,3.25,2.13,4.4,2.04,2.6,8.39,8.45,11.41,11.2,1.64-4.32,2.97-9.06,3.63-14.22,2.94-22.57-10.75-46.02-32.39-55.8"></path>
    <path class="cls-1" d="M200.8,47.09c.74-1.48,2.63-5.31,3.09-6.84.18-.64.39-1.79.13-2.24l-1-.26-5.31,5.83c-.13.15-.2.28-.24.41h-.1s3.42,3.1,3.42,3.1"></path>
    <path class="cls-1" d="M237.11,86.64c.35-1.04-1.07-1.46-3.12-.98l-11.03,2.58c3.51-2.17,8-5.02,9.88-6.56,1.1-.9,2.85-2.56,3.01-3.52.18-.94-1.16-1.22-2.94-.63l-11.85,3.97c2.68-2.31,7.66-6.68,9.37-8.67.8-.92,2.02-2.62,1.98-3.47-.02-.85-1.3-.93-2.77-.16l-10.97,5.62c2.02-2.04,6.62-6.73,8.07-8.71.62-.9,1.58-2.47,1.44-3.24-.11-.76-1.26-.75-2.51.02l-8.73,5.3c1.98-2.12,5.13-5.56,6.24-7.16.55-.8,1.36-2.24,1.23-2.9-.14-.69-1.15-.65-2.28.06l-8.13,5.18c1.63-1.97,4.94-6.04,5.96-7.78.44-.81,1.11-2.21.96-2.85-.2-.65-1.17-.54-2.19.2l-7.6,5.6c-.07.06-.1.11-.16.17,1.37-1.75,4.63-5.95,5.58-7.69.41-.75.97-2.09.8-2.7-.2-.61-1.11-.51-2.05.23l-7.03,5.39s0,.02-.03.03c1.09-1.79,3.35-5.54,3.96-7.1.3-.7.64-1.95.41-2.48l-1.05-.36-6.49,6.09c-.16.16-.25.29-.31.42h-.01c1.04-1.71,3.16-5.25,3.75-6.72.25-.67.58-1.87.37-2.35l-1.01-.33-6.14,5.76c-.19.15-.27.3-.3.44l-.25-.05c11.14,10.99,17.78,26.32,16.76,41.62-.42,6.52-1.88,12.43-3.86,17.65,3.54-1.37,14.31-5.6,18.02-7.62,1.5-.82,3.99-2.41,4.46-3.48.46-1.07-.94-1.66-3.17-1.3l-10.47,1.66c3.9-1.94,8.39-4.25,10.43-5.58,1.34-.89,3.48-2.56,3.82-3.59"></path>
    <path class="cls-1" d="M199.18,37.74c.06-.56.13-1.53-.19-1.92l-.95-.17-4.17,5.31c-.07.11-.1.21-.13.3l3.48,2.63c.47-1.25,1.76-4.75,1.98-6.14"></path>
    <path class="cls-1" d="M168.53,32.94l.7-.69-1.46-.38c-1.91.19-6.1,1.29-6.1,1.29l-.62.19-2.21-2.54c-.34-.48-.78-.65-1.03-.38l-.17,1.02c.26,1.47,1.19,4.15,1.54,5.12h-.02l-.05-.17-2.9-3.77c-.4-.48-.94-.66-1.26-.41l-.33,1c.1,1.51,1.04,4.4,1.31,5.23,2.58-1.52,5.3-2.86,8.13-3.97-21.66,9.78-35.33,33.22-32.41,55.8.69,5.27,2.04,10.09,3.74,14.47,3.01-2.7,9.43-8.61,11.48-11.24.93-1.16,2.3-3.3,2.12-4.43-.17-1.09-1.79-1.26-3.63-.33l-5.47,2.77,3.76-3.06c1.99-2.03,3.51-3.94,3.45-4.99-.02-1.07-1.54-1.32-3.4-.59l-7.71,3.09,5.08-3.17c2.31-1.84,3.92-3.42,4.04-4.36.07-.92-1.26-1.3-3.04-.77l-7.49,2.14,5.69-2.28c2.54-1.35,4.31-2.53,4.6-3.34.27-.82-.86-1.33-2.54-1.11l-9.56,1.2c3.27-.97,7.77-2.35,9.64-3.18,1.08-.47,2.8-1.41,3.11-2.13.35-.69-.64-1.19-2.16-1.11l-7.16.39c2.74-.75,5.9-1.68,7.35-2.3.97-.38,2.54-1.2,2.85-1.82.31-.64-.55-1.12-1.95-1.08l-7,.25,6.35-1.33c2.51-.86,4.07-1.53,4.42-2.12.35-.56-.44-1.06-1.75-1.12l-6.9-.18c2.76-.51,6.5-1.26,8.1-1.77.9-.3,2.43-.91,2.77-1.44.36-.55-.38-1.03-1.64-1.07l-4.53-.2,4.17-.47c1.94-.44,3.39-.87,3.77-1.3l-.23-.96-5.06-.65,4.43-.48c1.96-.42,3.32-.82,3.68-1.28l-.2-.88-5.71-.73,5.28-.2c2.13-.31,3.47-.61,3.87-.98l-.12-.86-5.71-1.11,4.87.11c2.01-.16,3.3-.33,3.7-.63l.04-.74-6.47-1.59,5.47.16c1.99-.21,3.1-.4,3.44-.7l-.06-.69-5.37-1.29,4.89.4c1.95-.02,3.09-.1,3.48-.3l.06-.57-5-1.35,3.54.18c1.45-.1,2.37-.2,2.63-.44v-.57l-3.14-.89c.02-.06.04-.13.06-.14l3.93-2.23Z"></path>
    <path class="cls-1" d="M152.28,40.7l-3.67-4.66c-.48-.63-1.13-.84-1.44-.46-.32.37-.28,1.35-.2,1.91.2,1.3,1.35,4.48,1.88,5.9l3.45-2.6s0-.05-.03-.08"></path>
    <path class="cls-1" d="M144.81,47.05h0l-.14-.25-5.61-5.27c-.73-.66-1.5-.82-1.73-.35-.21.52.13,1.68.39,2.36.58,1.49,2.72,5.04,3.76,6.74h0l-.18-.27-5.89-5.53c-.77-.72-1.58-.88-1.82-.36-.24.53.12,1.75.39,2.47.63,1.55,2.85,5.25,3.94,7.05l-7.01-5.36c-.96-.74-1.89-.82-2.05-.23-.19.61.38,1.95.8,2.69.91,1.69,4.02,5.73,5.45,7.58l-.02-.02-7.64-5.6c-1.01-.75-1.98-.84-2.16-.21-.17.63.51,2.04.95,2.84,1.02,1.75,4.35,5.85,5.97,7.81l-8.12-5.2c-1.13-.71-2.17-.74-2.29-.08-.12.68.68,2.14,1.24,2.93,1.08,1.59,4.27,5.05,6.26,7.16l-8.75-5.3c-1.27-.8-2.42-.8-2.53-.04-.12.74.81,2.34,1.44,3.2,1.46,2.03,6.12,6.75,8.11,8.77l-11-5.65c-1.49-.75-2.74-.72-2.78.15-.06.86,1.16,2.56,1.99,3.49,1.69,1.97,6.65,6.33,9.34,8.65l-11.83-3.97c-1.8-.61-3.14-.3-2.94.64.14.93,1.9,2.59,3,3.5,1.87,1.53,6.38,4.39,9.89,6.57l-11.06-2.61c-2.04-.47-3.46-.05-3.12,1,.35,1.03,2.5,2.7,3.84,3.59,2.03,1.32,6.53,3.63,10.43,5.57l-10.49-1.66c-2.21-.35-3.62.24-3.15,1.31.47,1.06,2.95,2.65,4.43,3.46,3.67,2.01,14.23,6.15,17.91,7.57-1.99-5.24-3.46-11.21-3.89-17.78-1.02-15.19,5.53-30.41,16.68-41.4"></path>
    <path class="cls-1" d="M148.45,43.33l-4.69-5.13c-.63-.7-1.36-.88-1.63-.43-.27.45-.06,1.57.13,2.23.43,1.47,2.17,5,2.98,6.59l3.37-3.01c-.05-.08-.08-.18-.16-.27"></path>
    <path class="cls-1" d="M155.68,38.18l-3.5-4.3c-.47-.59-1.04-.77-1.3-.4l-.13,1.28c.47,2.09,1.64,5.75,1.64,5.75l.08.09,3.39-2.11c-.03-.09-.08-.2-.19-.31"></path>
    <path class="cls-1" d="M172.7,151.77c-9.78-3.69-18.25-7.93-25.59-12.49l-.77-.52-.3-.16-5.06,1.43c9.11,6.13,19.47,11.37,31.03,15.67l.68.23.68-.23c11.76-4.37,21.79-9.61,30.31-15.33l-4.94-1.38c-7.44,4.68-16.06,9.02-26.05,12.78"></path>
    <path class="cls-1" d="M96.02,0v68.97c0,5.72,2.53,20.8,12.12,36.88l2.46,3.92,4.11-1.02c-14.16-20.84-14.78-39.47-14.78-39.78V3.92h145.51v65.04c0,.32-.61,18.58-14.33,39.16l4.12.89c10.81-16.47,14.12-32.01,14.12-40.03V0H96.02Z"></path>
    <path class="cls-1" d="M256.58,159.33l-4.39-20.06,14.96-7.26c-3.25-1.98-8.73-5-14.56-7.03-3.42-1.19-5.95-1.61-7.74-1.68l.25-4.52c2.3.11,5.24.63,8.98,1.92,9.88,3.42,18.4,9.3,18.75,9.56l2.94,2.04-18.61,9.34,5.75,28.57s-9.4-9.49-22.31-12.83c-6.05-1.55-14.9-1.83-15.89-1.79l2.85-15.34,4.44.9-2.04,10.03c4.68.24,9.83,1.3,11.83,1.82"></path>
    <polygon class="cls-1" points="245.4 148.53 230.13 152.9 226.71 151.48 242.86 145.55 245.4 148.53"></polygon>
    <polygon class="cls-1" points="101.59 148.48 117.26 152.9 120.68 151.48 104.53 145.56 101.59 148.48"></polygon>
    <path class="cls-1" d="M119.5,140.2l-4.43.91,2.05,10c-4.67.25-9.81,1.3-11.83,1.85-6.51,1.76-11.51,4.31-14.8,6.34l4.39-20.09-14.99-7.24c3.27-1.97,8.73-5,14.59-7.02,2.63-.92,4.72-1.37,6.36-1.56l-.67-4.48c-1.99.25-4.36.78-7.18,1.77-9.88,3.42-18.38,9.29-18.73,9.56l-2.95,2.04,18.63,9.33-5.73,28.56s9.37-9.5,22.3-12.83c6.02-1.56,14.86-1.81,15.86-1.79l-2.86-15.34Z"></path>
    <path class="cls-1" d="M245.38,148.54l-2.63-.69c-15.68-4.16-40.59-6.47-70.05-6.33-36.2.11-57.25,3.51-68.54,6.34l-2.59.64-4.62-39.21,2-.5c15.81-3.97,43.34-6.4,73.64-6.46,31.11-.03,59.95,2.39,75.27,6.46l1.96.52-4.44,39.23ZM102.12,112.85l3.51,29.81c16.43-3.75,39.52-5.77,67.07-5.86,28.32-.06,52.51,1.99,68.63,5.83l3.37-29.81c-15.39-3.69-42.67-5.89-72.09-5.81-28.24.07-54.93,2.3-70.51,5.85"></path>
    <path class="cls-1" d="M127.8,112.67l.82,8.37c.06.56.27.91.61,1.05l.65.11.88-.09.05.46-5.81.57-.05-.45.29-.03.62-.11.46-.69-.77-7.82c-.05-.49-.17-.81-.37-.96l-.51-.16-.68.06-.05-.45c.2-.02,4.96-.48,5.23-.51,2.86-.27,4.39.55,4.58,2.49.08.87-.17,1.62-.77,2.24-.61.63-1.42,1.02-2.45,1.2l-.75.11-.75-.39.38-.04c.72-.06,1.24-.37,1.56-.89.3-.49.43-1.13.34-1.93-.15-1.62-1.16-2.34-3-2.16l-.53.04Z"></path>
    <path class="cls-1" d="M137.6,120.65l-.54-7.77c-.04-.49-.2-.81-.51-.96l-.48-.13-.72.05-.04-.45c.15,0,5.47-.38,5.79-.41,2.91-.2,4.42.6,4.55,2.38.08,1.23-.7,2.19-2.35,2.87l3.4,3.69c.27.3.54.5.78.61l.6.17.49.48-3.52.25-4.16-4.68-1.21.08.23,3.27c.04.53.21.87.51,1.02l.56.13.84-.06.03.45-5.8.41-.03-.46.33-.02,1.28-.37M139.34,111.72l.32,4.55.9-.07c.95-.06,1.64-.29,2.09-.69.44-.4.63-1.02.57-1.89l-.33-1.21c-1.02-.74-1.61-.89-2.51-.83l-.36.05"></path>
    <path class="cls-1" d="M164.45,120.58v-.46s.25,0,.25,0l1.35-.3-.1-8.61c0-.58-.46-.87-1.37-.86h-.26v-.46c.33,0,8.88-.09,9.26-.1l.07,2.35h-.57s-.2-.9-.2-.9c-.57-.59-1.17-.76-2.05-.75l-2.55.03.05,4.01,2.18-.03c.51,0,.88-.13,1.1-.38l.28-.52.61-.46c-.03.6-.01,2.95.04,3.54l-.57-.02-.16-.81c-.31-.44-.7-.58-1.28-.58l-2.2.03.04,3.57c0,.44.24.74.69.87l.8.11c1.97-.02,2.8-.12,3.23-.31l.94-.64.81-.86-.47,1.77c-.48.68-9.66.79-9.95.79"></path>
    <path class="cls-1" d="M184.2,112.06l-.52.07-.28-.99c-.77-.77-1.27-.98-1.86-.98l-1.29.15c-.78.66-.99,1.14-1,1.75-.01.68.46,1.27,1.42,1.75l2.63,1.27c.94.63,1.42,1.46,1.4,2.5-.01,1.01-.47,1.81-1.37,2.39-.82.53-1.86.79-3.11.78-.87,0-1.84-.26-2.91-.73l-.28-2.34.51-.08.82,1.71c.51.49,1.17.75,1.99.76l1.19-.14c.87-.62,1.09-1.04,1.1-1.58,0-.74-.45-1.35-1.37-1.84l-2.59-1.29c-.92-.63-1.38-1.46-1.36-2.5,0-.99.4-1.75,1.15-2.31.76-.56,1.74-.83,2.95-.81.34,0,1.22.09,2.64.26l.15,2.19Z"></path>
    <path class="cls-1" d="M186.73,120.6l.02-.46h.25s1.37-.23,1.37-.23l.3-8.61c.02-.58-.42-.89-1.32-.92h-.25s.02-.47.02-.47c.34.01,8.87.31,9.27.33l-.05,2.35-.57-.03-.15-.9c-.54-.61-1.14-.8-2.01-.83l-2.55-.09-.14,4.01,2.18.08c.51.02.88-.1,1.12-.33l.3-.51.63-.44c-.06.59-.14,2.95-.12,3.54h-.57s-.12-.86-.12-.86c-.29-.46-.67-.62-1.25-.63l-2.2-.08-.12,3.57c-.02.44.2.75.64.9l.8.15c1.97.07,2.8,0,3.24-.16.59-.23.98-.63,1.27-1.44l.55.02c-.31.94-.56,1.74-.71,2.41-.35,0-9.53-.34-9.82-.35"></path>
    <path class="cls-1" d="M203.27,110.59l7.64,8.21.43-5.76c.06-.96-.44-1.48-1.49-1.54l-.41-.03.03-.45c.29.02,4.57.31,4.82.33l-.03.46-.27-.02-.88.04c-.61.44-.83.97-.89,1.79l-.65,8.49-.51-.04-8.84-9.42-.42,6.3c-.05.68.04,1.16.25,1.43l.66.42.99.07-.04.46c-.25-.02-4.58-.31-4.85-.33l.03-.45.26.02c1.1.08,1.69-.54,1.77-1.82l.44-6.44c.03-.41-.12-.75-.44-1.03l-.7-.44-.68-.05.04-.46c.24.02,3.56.24,3.73.25"></path>
    <path class="cls-1" d="M223.45,114.5l-.52.03-.2-1c-.69-.84-1.17-1.09-1.77-1.16l-1.29.04c-.85.58-1.09,1.04-1.15,1.66-.07.68.35,1.31,1.25,1.87l2.51,1.5c.89.71,1.29,1.58,1.17,2.62-.11,1-.63,1.76-1.58,2.25-.87.45-1.93.61-3.17.49-.87-.09-1.81-.42-2.84-.99l-.07-2.35.52-.04.67,1.78c.46.54,1.11.85,1.92.94l1.2-.04c.92-.54,1.17-.95,1.23-1.48.08-.73-.33-1.38-1.2-1.96l-2.47-1.51c-.87-.7-1.24-1.57-1.13-2.61.1-.97.55-1.7,1.35-2.19.8-.49,1.8-.67,3.01-.55.34.04,1.21.2,2.61.5l-.06,2.19Z"></path>
    <path class="cls-1" d="M118.53,126.98l1,8.35c.06.56.28.9.64,1.03l.66.08.88-.1.06.45-5.8.69-.06-.45.29-.04.62-.13.44-.7-.94-7.81c-.06-.49-.19-.8-.4-.95l-.51-.15-.68.08-.06-.45c.19-.02,4.95-.6,5.22-.63,2.85-.34,4.4.45,4.63,2.39.1.87-.14,1.63-.73,2.26-.59.63-1.4,1.05-2.42,1.26l-.75.13-.76-.37.38-.05c.72-.08,1.23-.4,1.54-.93.3-.5.39-1.14.3-1.93-.19-1.61-1.21-2.31-3.04-2.09l-.54.05Z"></path>
    <path class="cls-1" d="M128.54,134.77l-.7-7.75c-.05-.49-.22-.8-.53-.96l-.48-.12-.72.07-.04-.46c.14,0,5.47-.49,5.79-.52,2.9-.25,4.43.5,4.59,2.29.11,1.23-.66,2.2-2.31,2.92l3.48,3.62c.28.3.55.49.8.59l.6.15.5.47-3.51.31-4.25-4.6-1.21.1.29,3.27c.05.53.23.87.54,1.01l.57.11.84-.08.04.45-5.8.52-.04-.45.33-.03,1.28-.39M130.1,125.79l.41,4.55.9-.08c.95-.09,1.64-.33,2.07-.73.42-.39.6-1.04.53-1.9l-.35-1.2c-1.04-.72-1.7-.86-2.52-.79l-.36.06"></path>
    <path class="cls-1" d="M144.4,130.96l-.49,1.63c-.23.74-.34,1.14-.33,1.22l.49.51,1.12-.07.03.46-4.2.25-.03-.46h.11c.78-.06,1.3-.42,1.54-1.1l3.28-9.8s1.56-.13,1.58-.13l4.16,8.21c.17.36.42.87.77,1.52l.64.58.71-.04.03.45-5.28.31-.03-.46h.2s1.13-.23,1.13-.23l-.17-.79-1.1-2.32-4.15.25ZM148.14,129.89l-1.94-4.23h-.04l-1.46,4.43,3.43-.2Z"></path>
    <path class="cls-1" d="M155.3,134.16v-.46s.25,0,.25,0l1.35-.33-.27-8.61c-.02-.59-.48-.86-1.39-.83h-.25s0-.45,0-.45l9.27-.28.11,2.34-.57.02-.22-.9c-.58-.58-1.19-.73-2.06-.7l-2.55.08.12,4.01,2.18-.07c.51-.02.88-.15,1.09-.4l.27-.53.6-.48c-.02.6.06,2.95.1,3.54l-.57.02-.18-.83c-.32-.44-.71-.57-1.29-.55l-2.2.07.11,3.57c.02.45.25.74.71.85l.8.09c1.96-.06,2.8-.18,3.23-.38.57-.27.99-.7,1.23-1.52l.49-.02c-.26.96-.44,1.78-.55,2.46l-9.83.32Z"></path>
    <path class="cls-1" d="M179.7,126.18l-.56.07c-.3-.87-.71-1.51-1.21-1.92-.67-.53-1.64-.8-2.9-.8-1.46,0-2.6.44-3.41,1.32-.79.83-1.18,1.95-1.18,3.34s.41,2.59,1.21,3.54c.92,1.07,2.18,1.61,3.81,1.61.96,0,1.75-.23,2.4-.69.65-.46,1.1-1.09,1.33-1.87l.51.07-.46,2.48c-1.27.46-2.66.69-4.2.69-2.15,0-3.86-.48-5.12-1.43-1.37-1.01-2.05-2.45-2.05-4.3,0-1.66.72-2.99,2.14-4,1.33-.94,3-1.43,4.98-1.42l2.44.31c1.05.26,2.13.46,2.13.46l.15,2.56Z"></path>
    <path class="cls-1" d="M179.7,126.18l-.56.07c-.3-.87-.71-1.51-1.21-1.92-.67-.53-1.64-.8-2.9-.8-1.46,0-2.6.44-3.41,1.32-.79.83-1.18,1.95-1.18,3.34s.41,2.59,1.21,3.54c.92,1.07,2.18,1.61,3.81,1.61.96,0,1.75-.23,2.4-.69.65-.46,1.1-1.09,1.33-1.87l.51.07-.46,2.48c-1.27.46-2.66.69-4.2.69-2.15,0-3.86-.48-5.12-1.43-1.37-1.01-2.05-2.45-2.05-4.3,0-1.66.72-2.99,2.14-4,1.33-.94,3-1.43,4.98-1.42l2.44.31c1.05.26,2.13.46,2.13.46l.15,2.56Z"></path>
    <path class="cls-1" d="M179.7,126.18l-.56.07c-.3-.87-.71-1.51-1.21-1.92-.67-.53-1.64-.8-2.9-.8-1.46,0-2.6.44-3.41,1.32-.79.83-1.18,1.95-1.18,3.34s.41,2.59,1.21,3.54c.92,1.07,2.18,1.61,3.81,1.61.96,0,1.75-.23,2.4-.69.65-.46,1.1-1.09,1.33-1.87l.51.07-.46,2.48c-1.27.46-2.66.69-4.2.69-2.15,0-3.86-.48-5.12-1.43-1.37-1.01-2.05-2.45-2.05-4.3,0-1.66.72-2.99,2.14-4,1.33-.94,3-1.43,4.98-1.42l2.44.31c1.05.26,2.13.46,2.13.46l.15,2.56Z"></path>
    <path class="cls-1" d="M179.7,126.18l-.56.07c-.3-.87-.71-1.51-1.21-1.92-.67-.53-1.64-.8-2.9-.8-1.46,0-2.6.44-3.41,1.32-.79.83-1.18,1.95-1.18,3.34s.41,2.59,1.21,3.54c.92,1.07,2.18,1.61,3.81,1.61.96,0,1.75-.23,2.4-.69.65-.46,1.1-1.09,1.33-1.87l.51.07-.46,2.48c-1.27.46-2.66.69-4.2.69-2.15,0-3.86-.48-5.12-1.43-1.37-1.01-2.05-2.45-2.05-4.3,0-1.66.72-2.99,2.14-4,1.33-.94,3-1.43,4.98-1.42l2.44.31c1.05.26,2.13.46,2.13.46l.15,2.56Z"></path>
    <path class="cls-1" d="M181.68,133.8v-.46s.27.01.27.01l1.37-.26.21-8.61c.02-.58-.44-.88-1.33-.91h-.25s0-.47,0-.47c.34,0,8.88.22,9.27.23l-.02,2.35h-.57l-.17-.93c-.55-.61-1.15-.8-2.02-.81l-2.55-.07-.09,4.01,2.18.06c.51,0,.88-.11,1.12-.34l.3-.51.62-.44-.08,3.54-.57-.04-.13-.82c-.29-.45-.68-.61-1.26-.61l-2.2-.06-.08,3.57c0,.45.21.75.66.89l.8.14c1.97.05,2.8-.02,3.24-.2.58-.23.98-.67,1.25-1.49l.54.05c-.3.95-.53,1.75-.68,2.42l-9.82-.24Z"></path>
    <path class="cls-1" d="M198.36,124.93l-.41,7.89c-.03.51.33.81,1.06.92l2.43.1c.76-.04,1.36-.27,1.81-.74l.44-.61.72-.44c-.18.57-.44,1.42-.81,2.56l-9.69-.5.03-.46h.25c.92.06,1.4-.26,1.43-.94l.41-7.86c.03-.58-.42-.9-1.33-.95h-.25s.02-.46.02-.46l5.69.29-.02.45-.46-.02h-.74l-.54.4"></path>
    <path class="cls-1" d="M210.85,125.71l-.63,7.88c-.04.51.3.82,1.03.94l2.42.16c.76,0,1.37-.23,1.82-.68l.46-.58.73-.43c-.19.56-.49,1.41-.89,2.55l-9.66-.79.04-.45.25.02c.92.08,1.4-.23,1.46-.91l.63-7.85c.05-.58-.39-.91-1.31-.99l-.25-.02.04-.46,5.67.46-.04.45-.46-.04-.74-.02-.55.38"></path>
    <path class="cls-1" d="M219.21,130.53c.19-1.58,1-2.84,2.43-3.75,1.43-.92,3.09-1.28,4.98-1.04,1.99.25,3.58.91,4.77,2.01,1.24,1.13,1.77,2.5,1.58,4.08-.21,1.72-1.03,3.05-2.48,3.97-1.44.93-3.15,1.26-5.12,1.02-1.96-.24-3.51-.94-4.67-2.09-1.19-1.18-1.69-2.58-1.49-4.19M221.83,130.31c-.18,1.46.05,2.73.67,3.81.69,1.19,1.74,1.87,3.14,2.04,2.77.33,4.35-1.11,4.73-4.32.15-1.25-.08-2.38-.7-3.42-.71-1.18-1.77-1.86-3.18-2.04-1.46-.18-2.61.17-3.44,1.05-.68.7-1.09,1.66-1.23,2.86"></path>
    <path class="cls-1" d="M153.56,117.22l-.52,1.62c-.24.74-.36,1.13-.36,1.21l.48.52,1.11-.05.02.45-4.21.17-.02-.46h.1c.79-.04,1.3-.39,1.56-1.07l3.46-9.74s1.56-.09,1.59-.09l4.01,8.29c.16.36.41.87.74,1.53l.63.59.71-.03.02.46-5.28.21-.02-.46h.2s1.13-.21,1.13-.21l-.15-.79-1.06-2.34-4.15.18ZM157.31,116.2l-1.86-4.27h-.04l-1.53,4.4,3.43-.13Z"></path>
    <path class="cls-1" d="M247.21,26.94H98.15V1.66h149.06v25.28ZM116.55,7.71l-1.89,5.23h-6.24l5.13,3.27-1.85,5.18,4.84-3.25,4.82,3.25-1.85-5.18,5.11-3.27h-6.21l-1.86-5.23ZM144.66,7.71l-1.87,5.23h-6.22l5.12,3.27-1.85,5.18,4.82-3.25,4.84,3.25-1.86-5.18,5.12-3.27h-6.24l-1.86-5.23ZM172.78,7.71l-1.87,5.23h-6.24l5.12,3.27-1.84,5.18,4.83-3.25,4.84,3.25-1.87-5.18,5.12-3.27h-6.24l-1.85-5.23ZM200.9,7.71l-1.88,5.23h-6.24l5.14,3.27-1.84,5.18,4.82-3.25,4.83,3.25-1.87-5.18,5.12-3.27h-6.23l-1.85-5.23ZM229.02,7.71l-1.88,5.23h-6.24l5.12,3.27-1.82,5.18,4.82-3.25,4.81,3.25-1.84-5.18,5.13-3.27h-6.24l-1.86-5.23Z"></path>
    <path class="cls-1" d="M285.25,148.98h3.23c8.3,0,17.07-1.08,17.07-12.29V23.68c0-11.22-8.76-12.29-17.07-12.29h-3.23v-6.48c9,0,22.83.86,34.13.86s25.38-.86,36.22-.86v6.47h-3.23c-8.31,0-17.07,1.08-17.07,12.3v113.02c0,11.21,8.76,12.3,17.07,12.3h3.23v6.47c-11.07,0-24.91-.86-36.45-.86s-24.91.86-33.91.86v-6.49Z"></path>
    <path class="cls-1" d="M505.28,49.35c-6.45-20.92-17.06-38.18-51.66-38.18-37.82,0-57.67,27.82-57.67,65.57s19.6,72.47,63.2,72.47c24.68,0,41.04-14.45,47.05-36.02l6.46.86c-3,11.65-4.61,23.3-5.77,34.94-13.39,5.39-31.6,9.71-52.82,9.71-51.91,0-90.42-26.52-90.42-80.66,0-48.32,41.76-76.35,89.27-76.35,26.99,0,35.75,7.76,57.44,10.78-.23,11.86.23,23.94,1.84,36.02l-6.93.86Z"></path>
    <path class="cls-1" d="M576.08,134.32c0,8.63,6.47,11.22,13.83,12.07,9.47.65,19.84.65,30.45-.42,9.68-1.08,17.99-6.25,22.14-11.66,3.7-4.75,5.77-10.78,7.16-15.53h6.69c-2.54,12.3-5.77,24.37-8.54,36.66-20.3,0-40.59-.86-60.9-.86s-40.59.86-60.89.86v-6.46h3.23c8.31,0,17.3-1.08,17.3-14.44V23.68c0-11.22-9-12.3-17.3-12.3h-3.23v-6.47c12.23,0,24.22.86,36.45.86s23.3-.86,35.06-.86v6.47h-5.77c-8.77,0-15.68.21-15.68,11.65v111.29Z"></path>
  </g>
</svg>
